<svg width="166" height="87" viewBox="0 0 166 87" fill="none" xmlns="http://www.w3.org/2000/svg">
<path d="M123.419 50.8345C121.825 51.0425 120.273 51.5027 118.824 52.1977C117.036 53.1151 115.485 54.4351 114.294 56.0539C113.102 57.6726 112.303 59.5459 111.958 61.5264C111.836 62.3222 111.782 63.127 111.797 63.932C111.797 64.7874 112.011 65.7229 112.118 66.605C112.7 70.4353 114.739 73.8924 117.808 76.2543C121.032 78.4732 124.711 79.9417 128.576 80.5523C132.441 81.1628 136.393 80.8998 140.143 79.7826C144.135 78.6713 147.837 76.7009 150.988 74.0092C154.14 71.3175 156.666 67.9695 158.39 64.1993C160.802 59.012 162.017 53.3479 161.943 47.627C161.84 42.1818 160.745 36.8012 158.711 31.7496C156.879 27.0063 154.024 22.7259 150.348 19.2135C146.869 15.9403 142.735 13.4439 138.219 11.8896C129.805 9.15626 120.771 8.97028 112.251 11.355C104.78 13.2997 97.8416 16.8988 91.9473 21.8864C86.8694 26.3402 82.3804 31.4242 78.5894 37.0154C74.9293 42.1474 71.8035 47.0924 68.3839 51.3424C65.3556 55.2945 61.7113 58.7331 57.5906 61.5264L54.6252 63.2103C53.6634 63.7182 52.6215 64.0122 51.6597 64.4131C49.8189 65.1156 47.9249 65.6698 45.9959 66.0704C40.1698 67.5184 34.0988 67.6826 28.2031 66.5515C24.8362 65.9205 21.6241 64.6404 18.7456 62.7826C17.3767 61.927 16.1202 60.9034 15.0054 59.7355C14.7403 59.4552 14.4906 59.1607 14.2573 58.8534C14.5258 59.1294 14.8113 59.3883 15.1123 59.6286C16.2836 60.6574 17.5648 61.5538 18.9326 62.3015C21.8738 63.9364 25.0874 65.0232 28.4168 65.5091C34.1143 66.332 39.9211 65.9496 45.4616 64.3864C47.2831 63.9403 49.0691 63.3596 50.8048 62.649C51.7188 62.2923 52.6109 61.8817 53.4764 61.4194L56.148 59.8157C60.0507 57.0447 63.4791 53.6597 66.3 49.7921C69.5327 45.5955 72.5516 40.6239 76.1315 35.3581C79.9469 29.458 84.4986 24.0686 89.6765 19.3204C95.991 13.9712 103.435 10.1238 111.45 8.06727C120.634 5.45272 130.386 5.62015 139.475 8.5484C159.539 14.3487 173.03 41.9336 162.103 66.204C160.082 70.4687 157.251 74.2997 153.768 77.4839C150.272 80.6646 146.136 83.0614 141.639 84.5138C137.136 85.9902 132.399 86.6244 127.667 86.3848C122.75 86.183 117.96 84.769 113.721 82.2685C108.718 79.2725 105.026 74.5007 103.382 68.9037C103.061 67.5405 102.687 66.2308 102.473 64.8675C102.269 63.4607 102.198 62.0378 102.26 60.6175C102.418 57.8711 103.089 55.1786 104.237 52.6789C105.239 50.4224 106.592 48.3385 108.244 46.5043C109.708 44.9071 111.379 43.5136 113.213 42.3613C115.925 40.6937 118.955 39.6104 122.11 39.1805C127.265 38.5944 132.45 39.9893 136.616 43.083C139.839 45.4011 142.28 48.6454 143.616 52.3848C144.568 54.8085 144.772 57.4617 144.204 60.0028C143.696 61.7937 142.868 62.6757 142.093 62.6757C140.383 62.6757 139.235 59.4949 136.323 56.4745C134.756 54.5979 132.775 53.1115 130.535 52.1327C128.296 51.1539 125.859 50.7095 123.419 50.8345Z" fill="#E6D69F"/>
<path d="M129.216 30.2262C125.276 28.9821 121.166 28.3599 117.034 28.3819C113.95 28.4047 110.884 28.8545 107.923 29.7183C104.595 30.7111 101.434 32.1977 98.5462 34.1287C93.1844 38.3345 88.4601 43.2954 84.5203 48.8567C80.0362 54.6846 74.9892 60.0565 69.4525 64.8944C65.6303 68.2008 61.4446 71.0614 56.9762 73.4212C52.6937 75.6416 48.0999 77.2006 43.351 78.0454C34.6059 79.7692 25.5393 78.6645 17.4633 74.8913C13.8317 73.0658 10.5634 70.593 7.8188 67.5941C5.32496 64.7357 3.32092 61.4843 1.88786 57.9715C-0.629285 51.4895 -0.629285 44.2994 1.88786 37.8174C4.09109 32.1759 8.43067 27.6324 13.9635 25.1743C15.2075 24.6282 16.5061 24.216 17.8373 23.9448L19.7341 23.5705L21.6577 23.4369C24.1548 23.2423 26.6578 23.732 28.8977 24.8536C32.7425 26.7489 35.7771 29.9653 37.4468 33.9149C38.8166 37.1939 39.0333 40.841 38.0613 44.2592C37.4799 46.704 36.2949 48.9638 34.6146 50.8318C32.9343 52.6997 30.8125 54.116 28.4435 54.951C27.0558 55.3795 25.5917 55.5011 24.1524 55.3072C22.7131 55.1134 21.3332 54.6088 20.1081 53.8284C19.0839 53.0712 18.3037 52.0305 17.864 50.8347L17.5968 49.9259L17.9976 50.7812C18.6136 51.91 19.541 52.8378 20.6692 53.4542C21.8389 54.0758 23.1269 54.4424 24.4485 54.53C25.7701 54.6175 27.0952 54.424 28.3366 53.962C30.4277 53.0775 32.268 51.69 33.6942 49.9227C35.1203 48.1554 36.0882 46.0631 36.5117 43.8315C37.2034 40.7943 36.8553 37.6126 35.5232 34.797C33.9592 31.4134 31.2271 28.7083 27.829 27.179C25.9532 26.3064 23.8743 25.9644 21.818 26.19L20.1349 26.3237C19.5738 26.3237 19.0395 26.591 18.4785 26.7246C17.338 26.9818 16.2276 27.3581 15.1657 27.8473C10.4434 30.089 6.79537 34.1039 5.01362 39.0202C2.88603 44.7294 2.95267 51.0256 5.20063 56.6885C5.83325 58.2158 6.60222 59.6829 7.49821 61.0721C8.3931 62.521 9.41214 63.8893 10.5438 65.1617C13.0002 67.7887 15.9156 69.9446 19.1464 71.5233C26.5055 74.8121 34.7148 75.6914 42.603 74.0359C46.9433 73.2275 51.1392 71.7771 55.0526 69.7325C59.2248 67.5071 63.1324 64.817 66.7008 61.7136C71.9809 57.098 76.6175 51.7938 80.4862 45.9432C84.2935 39.6415 88.7723 33.7712 93.8442 28.4353C100.049 22.7505 107.824 19.0708 116.152 17.8772C121.614 17.0454 127.188 17.3456 132.529 18.7592C135.958 19.7386 139.199 21.2833 142.12 23.33C143.364 24.2457 144.55 25.2365 145.673 26.297C146.662 27.3929 147.57 28.3819 148.345 29.3709C148.964 30.2888 149.526 31.244 150.028 32.2309C150.388 33.0173 150.657 33.8424 150.829 34.69C151.096 36.1334 150.829 37.1224 150.242 37.6303C149.779 37.8549 149.273 37.9716 148.759 37.9716C148.245 37.9716 147.738 37.8549 147.276 37.6303C146.635 37.4432 145.994 37.0957 145.192 36.7749C144.391 36.4542 143.589 36.0532 142.734 35.5988C141.879 35.1444 140.838 34.7435 139.876 34.2089L136.67 32.7655C134.233 31.7839 131.745 30.9362 129.216 30.2262Z" fill="#E6D69F"/>
<path d="M42.4961 57.9713L43.6716 56.3676C44.4731 55.3251 45.4349 53.6946 46.6371 51.9037C49.5063 47.0538 51.7334 41.8515 53.2626 36.4273C54.9196 30.5976 55.8176 24.5783 55.9342 18.5185C55.9666 15.0213 55.7255 11.5269 55.2129 8.06729C55.0251 6.49251 54.5159 4.97313 53.7168 3.60346C53.1367 2.51878 52.2911 1.59909 51.2589 0.930504C50.4434 0.394476 49.5032 0.0783576 48.5296 0.0127939C47.556 -0.0527698 46.582 0.134445 45.702 0.55629C44.8482 0.947302 44.0859 1.51338 43.4646 2.21788C42.8433 2.92237 42.3768 3.74957 42.0954 4.64591C41.7875 5.63063 41.6607 6.66308 41.7213 7.69308C41.7552 8.28126 41.8538 8.86392 42.0152 9.4305C42.1349 10.0898 42.323 10.7347 42.5763 11.355C43.6618 14.0138 44.5546 16.7472 45.2479 19.5343C46.5513 24.7778 47.162 30.1696 47.0645 35.572C46.9982 40.8684 46.2438 46.1337 44.8204 51.2355C44.1792 53.3204 43.6182 55.0578 43.1373 56.2339L42.4961 57.9713Z" fill="#E6D69F"/>
<path d="M50.0567 54.5767L51.3658 53.6412C52.2207 53.0531 53.3695 52.1176 54.7854 50.9682C58.2736 48.0156 61.4191 44.6803 64.1627 41.0248C67.1209 37.099 69.6217 32.8482 71.6165 28.355C72.7436 25.7871 73.716 23.154 74.5285 20.4698C74.9315 19.2473 75.0413 17.9471 74.8491 16.6742C74.6933 15.6921 74.2783 14.7693 73.6469 14.0013C73.0454 13.2943 72.2953 12.7289 71.4502 12.3454C70.6051 11.9619 69.6858 11.7698 68.7579 11.7827C66.9157 11.6899 65.1025 12.2693 63.6551 13.4132C63.0045 14.0019 62.4856 14.7215 62.1323 15.5249C61.7211 16.4606 61.503 17.4697 61.4912 18.4918C61.5481 20.8111 61.4678 23.1317 61.2507 25.4415C60.8321 29.742 59.936 33.9825 58.5791 38.0846C57.223 42.1421 55.4315 46.0406 53.2359 49.7119C52.3009 51.2088 51.4994 52.3849 50.8849 53.267L50.0567 54.5767Z" fill="#E6D69F"/>
</svg>
