<svg width="90" height="47" viewBox="0 0 90 47" fill="none" xmlns="http://www.w3.org/2000/svg">
<path d="M66.9138 27.561C66.0494 27.6737 65.2085 27.9232 64.4224 28.3001C63.4531 28.7974 62.6124 29.5131 61.9665 30.3907C61.3205 31.2684 60.8869 32.284 60.6999 33.3577C60.6339 33.7892 60.6049 34.2256 60.613 34.662C60.613 35.1257 60.7289 35.633 60.7868 36.1112C61.1024 38.1879 62.2078 40.0622 63.872 41.3428C65.6197 42.5458 67.6144 43.342 69.7098 43.673C71.8051 44.004 73.948 43.8614 75.9811 43.2557C78.1456 42.6532 80.1523 41.5849 81.8611 40.1255C83.5699 38.6662 84.9395 36.851 85.8741 34.8069C87.1821 31.9945 87.8405 28.9236 87.8005 25.8219C87.7448 22.8697 87.1508 19.9525 86.0479 17.2137C85.0548 14.6421 83.5068 12.3213 81.5142 10.417C79.628 8.64241 77.3866 7.28894 74.9382 6.44623C70.3762 4.96431 65.4783 4.86348 60.8592 6.1564C56.8087 7.21074 53.0466 9.16205 49.851 11.8662C47.0979 14.2809 44.6641 17.0373 42.6087 20.0686C40.6243 22.8511 38.9296 25.5321 37.0756 27.8363C35.4338 29.979 33.4579 31.8433 31.2238 33.3577L29.6161 34.2707C29.0946 34.5461 28.5297 34.7055 28.0083 34.9229C27.0103 35.3037 25.9834 35.6042 24.9375 35.8214C21.7788 36.6064 18.4873 36.6954 15.2908 36.0822C13.4654 35.7401 11.7239 35.0461 10.1633 34.0389C9.4211 33.575 8.73986 33.02 8.13546 32.3868C7.99174 32.2348 7.85635 32.0752 7.72989 31.9085C7.87544 32.0582 8.03025 32.1986 8.19339 32.3288C8.82844 32.8866 9.52307 33.3726 10.2647 33.778C11.8593 34.6644 13.6016 35.2536 15.4067 35.517C18.4957 35.9632 21.6439 35.7559 24.6478 34.9084C25.6354 34.6665 26.6037 34.3516 27.5448 33.9664C28.0403 33.773 28.524 33.5504 28.9932 33.2998L30.4417 32.4303C32.5576 30.9279 34.4164 29.0927 35.9458 26.9958C37.6984 24.7205 39.3352 22.0251 41.2761 19.1701C43.3447 15.9713 45.8125 13.0493 48.6198 10.475C52.0433 7.57483 56.0794 5.48886 60.4247 4.37389C65.4039 2.95636 70.6913 3.04714 75.619 4.63475C86.4969 7.77949 93.8116 22.7352 87.8874 35.8938C86.7912 38.206 85.2564 40.283 83.3682 42.0094C81.4725 43.7339 79.2305 45.0333 76.7922 45.8208C74.3507 46.6213 71.7828 46.9651 69.2168 46.8352C66.5512 46.7258 63.954 45.9592 61.6559 44.6035C58.9433 42.9791 56.9419 40.392 56.0504 37.3575C55.8765 36.6184 55.6738 35.9083 55.5579 35.1692C55.4471 34.4065 55.4083 33.635 55.442 32.865C55.5278 31.376 55.8914 29.9162 56.5139 28.5609C57.0573 27.3375 57.7906 26.2077 58.6866 25.2133C59.4801 24.3473 60.3862 23.5918 61.3807 22.967C62.8512 22.0629 64.4939 21.4756 66.204 21.2425C68.999 20.9247 71.8103 21.681 74.0691 23.3583C75.8163 24.6151 77.1399 26.3741 77.8641 28.4015C78.38 29.7155 78.491 31.154 78.1828 32.5317C77.9076 33.5027 77.4585 33.9809 77.0385 33.9809C76.1115 33.9809 75.4886 32.2563 73.9098 30.6188C73.0604 29.6013 71.9862 28.7955 70.7721 28.2648C69.5579 27.7341 68.237 27.4932 66.9138 27.561Z" fill="#918767"/>
<path d="M70.0569 16.3877C67.9205 15.7132 65.6922 15.3758 63.452 15.3877C61.78 15.4001 60.1178 15.6439 58.5127 16.1123C56.7081 16.6505 54.9943 17.4565 53.4286 18.5035C50.5217 20.7837 47.9603 23.4733 45.8243 26.4885C43.3931 29.6482 40.6568 32.5607 37.655 35.1837C35.5827 36.9763 33.3134 38.5272 30.8907 39.8066C28.5689 41.0104 26.0783 41.8557 23.5036 42.3137C18.7622 43.2483 13.8466 42.6494 9.46803 40.6036C7.49913 39.6139 5.72716 38.2732 4.23911 36.6474C2.88703 35.0976 1.8005 33.3348 1.02354 31.4303C-0.341179 27.9159 -0.341179 24.0177 1.02354 20.5034C2.21806 17.4447 4.57084 14.9814 7.57055 13.6487C8.24503 13.3526 8.94908 13.1291 9.67081 12.982L10.6992 12.7792L11.7421 12.7067C13.096 12.6012 14.453 12.8667 15.6674 13.4748C17.752 14.5023 19.3972 16.2462 20.3025 18.3875C21.0452 20.1653 21.1626 22.1427 20.6356 23.9959C20.3205 25.3214 19.678 26.5466 18.767 27.5593C17.856 28.5721 16.7056 29.34 15.4212 29.7927C14.6688 30.025 13.875 30.0909 13.0947 29.9858C12.3143 29.8807 11.5662 29.6071 10.902 29.184C10.3467 28.7735 9.92369 28.2092 9.6853 27.5609L9.54045 27.0682L9.75772 27.5319C10.0917 28.1439 10.5945 28.6469 11.2062 28.9811C11.8404 29.3181 12.5387 29.5169 13.2552 29.5644C13.9717 29.6119 14.6902 29.5069 15.3632 29.2565C16.4969 28.7769 17.4947 28.0246 18.2679 27.0665C19.0412 26.1083 19.5659 24.9739 19.7955 23.764C20.1705 22.1173 19.9818 20.3923 19.2596 18.8658C18.4116 17.0313 16.9304 15.5647 15.088 14.7356C14.071 14.2624 12.9439 14.077 11.829 14.1994L10.9165 14.2718C10.6123 14.2718 10.3226 14.4167 10.0184 14.4892C9.4001 14.6286 8.79811 14.8326 8.22236 15.0979C5.66206 16.3133 3.68423 18.49 2.71823 21.1555C1.56471 24.2508 1.60084 27.6644 2.81962 30.7347C3.16261 31.5627 3.57952 32.3582 4.06529 33.1113C4.55048 33.8969 5.10297 34.6387 5.71653 35.3286C7.0483 36.7529 8.62892 37.9217 10.3806 38.7777C14.3704 40.5607 18.8213 41.0375 23.098 40.1399C25.4512 39.7016 27.7261 38.9153 29.8478 37.8067C32.1099 36.6002 34.2284 35.1417 36.1631 33.4591C39.0258 30.9567 41.5396 28.0809 43.6371 24.9089C45.7013 21.4923 48.1296 18.3096 50.8794 15.4167C54.2434 12.3346 58.4586 10.3395 62.974 9.69238C65.9351 9.24142 68.9573 9.4042 71.853 10.1706C73.712 10.7016 75.4694 11.5391 77.053 12.6487C77.7272 13.1452 78.3706 13.6824 78.9794 14.2573C79.5153 14.8515 80.0078 15.3877 80.4279 15.9239C80.7635 16.4216 81.0683 16.9394 81.3404 17.4745C81.5356 17.9009 81.6814 18.3482 81.7749 18.8078C81.9198 19.5904 81.7749 20.1266 81.4563 20.4019C81.2058 20.5237 80.9309 20.587 80.6524 20.587C80.3739 20.587 80.099 20.5237 79.8485 20.4019C79.5008 20.3005 79.1532 20.1121 78.7187 19.9382C78.2841 19.7643 77.8496 19.5469 77.3861 19.3005C76.9226 19.0542 76.3577 18.8368 75.8363 18.5469L74.0981 17.7644C72.7771 17.2322 71.428 16.7726 70.0569 16.3877Z" fill="#918767"/>
<path d="M23.0401 31.4303L23.6774 30.5607C24.1119 29.9956 24.6334 29.1115 25.2852 28.1406C26.8407 25.5111 28.0482 22.6906 28.8773 19.7498C29.7757 16.5891 30.2625 13.3256 30.3258 10.0402C30.3434 8.14408 30.2126 6.24952 29.9347 4.37383C29.8329 3.52003 29.5568 2.69628 29.1236 1.95368C28.8091 1.3656 28.3506 0.866978 27.791 0.50449C27.3488 0.213873 26.8391 0.042483 26.3112 0.00693645C25.7834 -0.0286101 25.2553 0.0728921 24.7782 0.301603C24.3153 0.513598 23.902 0.82051 23.5651 1.20246C23.2283 1.58442 22.9754 2.0329 22.8228 2.51887C22.6558 3.05275 22.5871 3.61251 22.62 4.17095C22.6384 4.48984 22.6918 4.80574 22.7793 5.11292C22.8442 5.47035 22.9462 5.82004 23.0835 6.15634C23.6721 7.59783 24.1561 9.07983 24.532 10.5909C25.2386 13.4337 25.5698 16.357 25.5169 19.286C25.481 22.1576 25.072 25.0123 24.3002 27.7783C23.9526 28.9087 23.6484 29.8506 23.3877 30.4883L23.0401 31.4303Z" fill="#918767"/>
<path d="M27.1392 29.5896L27.8489 29.0824C28.3124 28.7636 28.9353 28.2564 29.703 27.6332C31.5941 26.0324 33.2995 24.2241 34.787 22.2422C36.3908 20.1137 37.7467 17.8091 38.8282 15.373C39.4393 13.9808 39.9665 12.5532 40.407 11.0979C40.6255 10.4351 40.685 9.73016 40.5809 9.04007C40.4964 8.50757 40.2714 8.00728 39.9291 7.59087C39.6029 7.20757 39.1963 6.90102 38.7381 6.6931C38.2799 6.48518 37.7814 6.38102 37.2784 6.38804C36.2796 6.33772 35.2965 6.65184 34.5118 7.27205C34.1591 7.59121 33.8777 7.98135 33.6862 8.41691C33.4633 8.92423 33.345 9.47137 33.3386 10.0255C33.3695 11.283 33.3259 12.5411 33.2082 13.7934C32.9813 16.125 32.4955 18.4241 31.7598 20.6481C31.0245 22.8479 30.0532 24.9616 28.8629 26.9521C28.3559 27.7636 27.9214 28.4013 27.5882 28.8795L27.1392 29.5896Z" fill="#918767"/>
</svg>
