<?xml version="1.0" encoding="UTF-8" standalone="no"?>
<svg
   xmlns:dc="http://purl.org/dc/elements/1.1/"
   xmlns:cc="http://creativecommons.org/ns#"
   xmlns:rdf="http://www.w3.org/1999/02/22-rdf-syntax-ns#"
   xmlns:svg="http://www.w3.org/2000/svg"
   xmlns="http://www.w3.org/2000/svg"
   viewBox="0 0 793.70135 1122.52"
   height="1122.52"
   width="793.70135"
   xml:space="preserve"
   id="svg2"
   version="1.1"><metadata
     id="metadata8"><rdf:RDF><cc:Work
         rdf:about=""><dc:format>image/svg+xml</dc:format><dc:type
           rdf:resource="http://purl.org/dc/dcmitype/StillImage" /></cc:Work></rdf:RDF></metadata><defs
     id="defs6"><clipPath
       id="clipPath18"
       clipPathUnits="userSpaceOnUse"><path
         id="path16"
         d="M 0,841.89 H 595.276 V 0 H 0 Z" /></clipPath></defs><g
     transform="matrix(1.3333333,0,0,-1.3333333,0,1122.52)"
     id="g10"><g
       id="g12"><g
         clip-path="url(#clipPath18)"
         id="g14"><g
           transform="translate(103.125,467.1227)"
           id="g20"><path
             id="path22"
             style="fill:#f3b61b;fill-opacity:1;fill-rule:nonzero;stroke:none"
             d="M 0,0 C 0,0 38.667,13.667 51.333,23.333 64,33 71,37.667 71,37.667 c 0,0 12.333,0.333 15.667,2.666 3.333,2.334 11.333,13 14,12.667 2.666,-0.333 19.666,-15.667 19.666,-15.667 L 115.667,34 101.333,48.333 c 0,0 0.334,-9 -2.333,-9.333 -2.667,-0.333 2.333,-4 1.667,-7.333 -0.667,-3.334 7.333,5 10,-1 0,0 -9.334,-10.667 -13.667,-8 -4.333,2.666 -9,4 -10.333,8.666 -1.334,4.667 -11.334,4.334 -11.334,4.334 0,0 7.959,-3.209 7.209,-7.959 -0.75,-4.75 1.625,-3.5 2.75,-4 1.125,-0.5 -0.5,-6.875 -0.5,-6.875 0,0 -7.125,-10.875 -8.125,-8.25 -1,2.625 6.625,9.625 4.25,14.25 0,0 -1.5,-6.25 -5.25,-7.625 -3.75,-1.375 -7.625,-6 -8.5,-7 -0.875,-1 -5.25,-7.375 -14.625,-6.875 -9.375,0.5 -37.5,-5.125 -46.125,-9.875 0,0 26.625,6 39,7 12.375,1 19.625,0 19.625,0 0,0 1,-1 -4.875,-3.125 -5.875,-2.125 -23.625,0.375 -35.125,-3.875 0,0 30.125,1.875 25.75,-1 -2.237,-1.469 -10.48,-4.626 -13.25,-6 -2.649,-1.312 0.125,-0.875 0.125,-0.875 0,0 22.625,8 28.875,11.75 6.25,3.75 15.25,11.25 18,14.375 2.75,3.125 26.875,16.125 26.875,16.125 l 29.25,20.625 c 0,0 3.75,3.875 8.625,2.125 4.875,-1.75 8.875,-3.125 11.625,-0.625 2.75,2.5 18.125,17.625 21.25,19.25 3.125,1.625 5.25,1.75 6.125,4.625 0.875,2.875 0.125,5 2.625,6.75 2.5,1.75 10.75,7.75 10.75,7.75 0,0 3,2.625 5.5,0 2.5,-2.625 23.5,-21.5 27.125,-27.375 3.625,-5.875 13,-17.5 15.875,-20 2.875,-2.5 8.625,-6.625 12.875,-7.875 4.25,-1.25 9.25,1.875 12.625,-2.75 3.375,-4.625 9.875,-9.375 23.375,-17.625 13.5,-8.25 49.625,-33.625 49.625,-33.625 0,0 3.885,-1.821 2.125,0 -2.357,2.439 -10.36,8.75 -8.5,9.25 3.25,0.875 30.75,-4 33.5,-5 0,0 3.5,2.25 -29.125,7.625 -32.625,5.375 6.375,3.625 6.375,3.625 0,0 19.875,-2.375 24,-4.625 0,0 2.625,0.25 -2.75,2.75 -5.375,2.5 -32.875,5.375 -36.5,5.875 -3.625,0.5 -16.375,0.5 -22.25,4.375 -5.875,3.875 -33.25,25.625 -35,28.875 -1.75,3.25 -3.5,5.625 -6.625,6 -3.125,0.375 -11.125,0.5 -16,3 -4.875,2.5 -4.375,4.625 -1.25,5.25 3.125,0.625 13.375,6 15.25,7.625 1.875,1.625 6.875,5.625 10.375,3.25 3.5,-2.375 26,-25.125 28.5,-26.25 2.5,-1.125 6.375,-0.625 9.5,-0.625 3.125,0 11.875,-8.375 16,-10.625 4.125,-2.25 41.875,-22.125 58.125,-25.875 0,0 3.25,-0.875 -4.25,3.125 -7.5,4 -28.648,7.422 -60.25,31.375 -11.714,8.879 -12.5,7.25 -12.5,7.25 0,0 -6.625,-1 -8.75,2.375 -2.125,3.375 -20.625,23.75 -25.5,24.375 -4.875,0.625 -12,-6 -19.75,-8.25 -7.75,-2.25 -15,-6 -18.625,-0.875 -3.625,5.125 -16.5,23.25 -19.5,25.375 -3,2.125 -20.125,17.875 -22,18 -1.875,0.125 -5.875,-6 -7.25,-7.25 -1.375,-1.25 -11,-7.5 -11.5,-9.875 -0.5,-2.375 0.5,-4.625 -3,-5.375 -3.5,-0.75 -11,-7 -14.375,-10.375 -3.375,-3.375 -6.625,-10.75 -14,-8.75 -7.375,2 -11.625,3.625 -14.625,0.5 -3,-3.125 -10.375,-14.875 -15.25,-11.875 -4.875,3 -19.125,15.5 -23,15.75 -3.875,0.25 -11.5,-8.75 -13,-10.375 -1.5,-1.625 -3.5,-5.375 -16.375,-5.625 0,0 -4.375,0.5 -9.75,-4.375 C 55.792,31.833 20.714,10.613 14.042,7.333 6.667,3.708 -2.167,0.042 0,0" /></g><g
           transform="translate(322.958,517.2897)"
           id="g24"><path
             id="path26"
             style="fill:#f3b61b;fill-opacity:1;fill-rule:nonzero;stroke:none"
             d="M 0,0 C -2.166,3.833 -2,7.5 1.334,5.833 4.667,4.167 5.667,1.333 8.5,0 c 2.834,-1.333 7.334,-7.333 8.667,-7.5 1.333,-0.167 0.5,3.333 -2.833,6 C 11,1.167 6,11.833 4,14.333 2,16.833 -10.166,29.5 -11.666,30 c -1.5,0.5 -4.334,2.167 -3.667,-1.5 0.667,-3.667 1.134,-9.5 -0.1,-11.667 -1.233,-2.166 -3.233,-5 -1.233,-6.5 2,-1.5 9.666,0.334 9.833,-4.166 0.167,-4.5 0.333,-10.167 4,-12.834 3.667,-2.666 7.5,-10.833 7.167,-15.833 -0.334,-5 -0.334,-10 2.5,-15 2.833,-5 13.333,-23.5 13.333,-23.5 0,0 3.167,-3.5 0.833,2.333 -2.333,5.834 -9.833,18.167 -6.5,18.334 3.334,0.166 14.334,-9 19.834,-13 5.5,-4 14.166,-8.667 19,-9.5 C 58.167,-63.667 49.5,-59 49.5,-59 c 0,0 -22.333,15 -26.666,20.333 -4.334,5.334 -9.5,8.5 -10.667,16.334 C 11,-14.5 10.167,-8.167 6.5,-4.833 2.834,-1.5 2.167,-3.833 0,0" /></g><g
           transform="translate(363.125,492.9562)"
           id="g28"><path
             id="path30"
             style="fill:#f3b61b;fill-opacity:1;fill-rule:nonzero;stroke:none"
             d="m 0,0 c 0,0 -12.667,10.418 -13.833,9.876 -1.167,-0.543 5,-7.709 5.5,-8.209 0.5,-0.5 7,-10.834 8.333,-12 1.333,-1.167 5.333,-8.5 7.667,-11.667 2.333,-3.167 6.833,-10.667 8.166,-10.167 1.334,0.5 -8.166,13.167 -8.166,15.5 0,2.334 -0.5,7.334 2.166,6.5 2.667,-0.833 6.834,-2 10.5,-4.5 3.667,-2.5 7.5,-6.333 12.167,-7 4.667,-0.666 15.833,-8.833 16.667,-8.833 0.833,0 12.5,-7.333 13.166,-7 0.667,0.333 -6,7 -12.666,9.667 C 43,-25.167 41.833,-21 38.333,-19.5 c -3.5,1.5 -9,2.552 -12.666,5.693 -3.667,3.14 -7.167,7.64 -10.167,8.64 -3,1 -7.668,-1 -15.5,5.167" /></g><g
           transform="translate(413.792,484.7062)"
           id="g32"><path
             id="path34"
             style="fill:#f3b61b;fill-opacity:1;fill-rule:nonzero;stroke:none"
             d="m 0,0 c 0,0 0.625,4.375 -4.5,8.875 -5.125,4.5 -13.125,13 -13.25,13.75 -0.125,0.75 -4.625,7.625 -5.875,8.5 -1.25,0.875 -5.5,4.125 -4.875,1.875 0.625,-2.25 3.375,-6.625 4.625,-9.5 1.25,-2.875 3.375,-10.875 3.375,-11.5 0,-0.625 1.5,-3.25 1.875,-1.75 0.375,1.5 -0.75,6.875 1,5.625 1.75,-1.25 2.125,-4.75 4.5,-7 2.375,-2.25 7.375,-4.75 8.75,-7.125 C -3,-0.625 3.375,-9.25 9.25,-14 c 0,0 3.625,-2.75 1.375,0.75 C 8.375,-9.75 1.883,-5.966 0,0" /></g><g
           transform="translate(467.667,464.5812)"
           id="g36"><path
             id="path38"
             style="fill:#f3b61b;fill-opacity:1;fill-rule:nonzero;stroke:none"
             d="m 0,0 c 0,0 -20.125,6.625 -26.75,12.75 -6.625,6.125 -14.949,13.625 -15.412,14 -0.463,0.375 -2.588,1.25 -2.588,-0.625 0,-1.875 -0.199,-4.875 2.588,-7.875 2.787,-3 8.162,-8.25 9.287,-9.25 1.125,-1 1,2.875 3.625,1.5 2.625,-1.375 16.625,-7.75 16.625,-7.75 C -12.625,2.75 3.75,-3 0,0" /></g><g
           transform="translate(275.0415,491.8649)"
           id="g40"><path
             id="path42"
             style="fill:#f3b61b;fill-opacity:1;fill-rule:nonzero;stroke:none"
             d="m 0,0 c 0,0 -0.5,3.591 -5.5,6.341 -5,2.75 -11.5,9.5 -12.25,10.25 -0.75,0.75 -6,4.75 -7,3 -1,-1.75 0,-5 -2,-7 -2,-2 -6,-2.75 -6.75,-5.25 C -34.25,4.841 -41.75,0 -41.75,0 c 0,0 -6.5,-3.159 -5.25,-4.659 1.25,-1.5 13.75,5.753 16.25,6.876 2.5,1.124 11.75,-0.373 13,0 1.25,0.374 7.25,-0.376 9,-3.376 1.75,-3 1.875,-4.625 4.5,-5.25 2.625,-0.625 9,-1.875 7.375,-3.125 -1.625,-1.25 -13.25,-1 -13.625,-0.875 -0.375,0.125 -7.625,-2.125 -15.75,-6.625 -8.125,-4.5 -17.375,-12 -17.125,-12.375 0.25,-0.375 0.75,-1.25 5.875,2.5 5.125,3.75 18.875,9.75 22.375,9.875 3.5,0.125 13.125,-0.25 16.75,1.25 3.625,1.5 4.375,2 5.125,3.625 0.75,1.625 7.625,4.75 9.25,5.625 1.625,0.875 5.75,3.75 7.375,6.5 1.625,2.75 4.5,6.75 4.5,8.875 0,2.125 -0.5,5.25 1.75,6.5 2.25,1.25 4.75,4.5 4.5,5.875 0,0 -0.375,2.125 -1.375,0 -1,-2.125 -2.125,-3.875 -4.125,-4 -2,-0.125 -3.75,-2 -4,-3.625 C 24.375,11.966 25.125,6.716 21.25,3.466 17.375,0.216 14.5,-4.409 10.75,-4.909 7,-5.409 3,-5.591 0,0" /></g><g
           transform="translate(322.667,489.5812)"
           id="g44"><path
             id="path46"
             style="fill:#f3b61b;fill-opacity:1;fill-rule:nonzero;stroke:none"
             d="m 0,0 c 0,0 0.25,6.922 -2.75,11.648 -3,4.727 -5.375,6.227 -5.375,8.102 0,1.875 -0.625,7.375 -1.25,7 -0.625,-0.375 -1.375,-5 -1.5,-6 C -11,19.75 -13.75,19.125 -14,17 c -0.25,-2.125 2,-3.828 1,-5.352 C -14,10.125 -17.75,7.75 -18.875,5.375 -20,3 -18.05,0.625 -22.15,-3 c -4.1,-3.625 -8.725,-8.75 -14.475,-11.25 -5.75,-2.5 -8.875,-1.75 -10,-3.5 -1.125,-1.75 -6.25,-5.75 -8.5,-6.75 -2.25,-1 -10.375,-4.375 -11.5,-5 -1.125,-0.625 -4,-0.75 -4,-1.75 0,-1 3.375,-0.375 6.875,1.25 3.5,1.625 11.375,3.625 14.875,4.5 3.5,0.875 7.625,3.125 9.25,4.75 1.625,1.625 4.625,-0.375 8.25,1.125 3.625,1.5 7.825,5.375 9.225,7 1.4,1.625 7.025,9.625 10.525,7.5 3.5,-2.125 10.25,-8.875 10.25,-8.875 0,0 4.875,-7.625 6.625,-6.75 1.75,0.875 -2,6.542 -3.5,8.958 C 0.25,-9.375 0,0 0,0" /></g><g
           transform="translate(93.5415,431.9562)"
           id="g48"><path
             id="path50"
             style="fill:#f3b61b;fill-opacity:1;fill-rule:nonzero;stroke:none"
             d="M 0,0 C 0,0 15.5,7.5 34.75,9.75 54,12 63.625,14 68.125,14.5 c 4.5,0.5 8.5,-0.5 10,2.25 1.5,2.75 0.75,6.75 1.875,7 1.125,0.25 1.75,-2 1.75,-3 0,-1 1.125,-0.5 1.375,-1.75 0.25,-1.25 0.75,-4.625 1.375,-2.5 0.625,2.125 0.75,9.412 2.25,9.394 1.5,-0.019 1.75,-4.519 1.75,-5.269 0,-0.75 1.125,-1.75 1.25,-2.125 0.125,-0.375 0.125,2.625 1.5,2.5 1.375,-0.125 0.25,-2.125 2,-2.375 1.75,-0.25 3.75,14.5 3.375,16.125 -0.375,1.625 1.75,3 1.875,1.25 0.125,-1.75 1.625,-12 1.75,-12.375 0.125,-0.375 1.625,-4.125 2.375,-1.75 0.75,2.375 1.75,16.125 2,17.25 0.25,1.125 1.5,3.125 1.5,1.5 0,-1.625 1.5,-14.5 1.5,-15.25 0,-0.75 1.375,-4.25 2.125,-3 0.75,1.25 1.75,13.875 2.25,14 0.5,0.125 1.25,0.375 1.375,-3 0.125,-3.375 1.875,-12.375 2,-13.625 0.125,-1.25 -0.5,-2.75 0,-2.875 0.5,-0.125 1.75,1.5 1.5,2.375 -0.25,0.875 1.25,1.5 1,2.5 -0.25,1 -0.125,12.625 1,12.25 1.125,-0.375 1.875,-5.25 1.75,-6.25 -0.125,-1 0.75,-2.75 1.25,-3.5 0.5,-0.75 0.25,-2.638 0.625,-3.631 0.375,-0.994 2,-4.869 2.25,-1.869 0.25,3 1.25,4.5 1.375,5.625 0.125,1.125 -0.75,5.149 0,5.762 0.75,0.613 1.375,3.863 1.375,4.863 0,1 1.375,3.25 1.5,0.25 0.125,-3 -1.375,-2.851 0,-5.113 1.375,-2.262 1.75,-4.387 1.625,-5.387 -0.125,-1 -0.58,-1.75 0.023,-2.75 0.602,-1 0.352,-4.125 1.477,-3.75 1.125,0.375 1.125,4.125 1.375,5.25 0.25,1.125 0.875,1.75 1.5,-0.5 0.625,-2.25 1.25,-1.638 1.75,-2.381 0.5,-0.744 -0.125,-2.744 1.125,-2.869 1.25,-0.125 1.375,2.237 1.375,2.869 0,0.631 0.25,1.932 1,1.781 0.75,-0.15 0.375,-2.775 1,-3.4 0.625,-0.625 1,-0.75 2.375,-0.25 1.375,0.5 1.625,1.125 1.875,-0.125 0.25,-1.25 2.375,-1.375 2.875,-1.375 0.5,0 0,-0.5 1,-1.625 1,-1.125 2.875,-1.375 2.875,-1.375 0,0 12.5,1.625 14.25,0.5 1.75,-1.125 4.75,-3.494 5.625,-3.31 0.875,0.185 7.25,-1.434 8.125,0 0.875,1.435 0.625,2.935 1.75,2.935 1.125,0 4.875,0.5 4.875,1.125 0,0.625 0.625,4.875 1.375,4.375 0.75,-0.5 0.625,-3.875 1.5,-4.375 0.875,-0.5 3.625,-1.375 4.125,-0.875 0.5,0.5 0.375,4.737 1,5.994 0.625,1.256 1.791,1.781 1.791,1.781 0,0 -0.041,6.35 1.084,6.35 1.125,0 1.375,-3.5 1.375,-4.625 0,-1.125 1.25,-2.888 1.25,-3.506 0,-0.619 0.875,-2.994 1.25,-3.119 0.375,-0.125 1.875,1.862 1.75,3.119 -0.125,1.256 1,8.131 1,8.131 0,0 1,0.625 1.125,-2.125 0.125,-2.75 -0.125,-3.824 0.5,-4.225 0.625,-0.4 0.201,-1.775 0.975,-2.275 0.775,-0.5 2.275,-1.75 2.275,-0.25 0,1.5 0.125,10.625 1,11.375 0.875,0.75 1.802,0.375 1.651,2.5 -0.151,2.125 0.224,7.25 0.724,5.875 0.5,-1.375 0.875,-5.875 0.875,-7.125 0,-1.25 1.125,-2.5 1,-3.75 -0.125,-1.25 -0.105,-3.875 0.01,-4.5 0.115,-0.625 1.025,-1.875 1.132,-2.625 0.108,-0.75 0.983,-4.875 1.358,-2.375 0.375,2.5 -0.125,10.524 0.625,10.887 0.75,0.363 1.875,1.613 1.875,2.613 0,1 0.75,3.875 1.125,1.25 0.375,-2.625 -1.125,-5.625 0,-6.25 1.125,-0.625 1.625,-1.75 1.75,-2.625 C 222.5,24.25 223,23.801 223.25,22.4 223.5,21 224,19.25 224,18.375 224,17.5 225.875,14.25 225.875,17 c 0,2.75 -0.375,7.537 0.375,8.894 0.75,1.356 0.875,-1.666 1.5,-2.405 0.625,-0.739 1.625,1.437 1.625,-1.089 0,-2.525 -0.875,-4.275 0,-4.9 0.875,-0.625 2.625,-1.75 2.625,0.125 0,1.875 0.125,5.864 1,5.864 0.875,0 -0.125,-4.114 0.75,-4.239 0.875,-0.125 1.362,2.127 1.862,-0.616 0.5,-2.744 -0.112,-3.759 0.638,-4.009 0.75,-0.25 1.5,-1.125 1.5,-1.5 0,-0.375 0.875,-0.375 1.375,0.75 0.5,1.125 0,3.375 1.75,2.75 1.75,-0.625 1.125,-2.375 3,-2.375 1.875,0 3.867,-1.25 4.184,0.125 0.316,1.375 1.191,3.25 1.691,2.125 0.5,-1.125 2.75,-2.25 3.375,-1.875 0.625,0.375 0.25,2.25 1.375,2.375 1.125,0.125 0.208,0.125 1.104,1.375 0.896,1.25 1.396,1.875 1.646,0.75 0.25,-1.125 -0.75,-1.75 0.75,-2.25 1.5,-0.5 1.75,-1.625 2.625,-2.125 0.875,-0.5 2.75,0.375 3.125,-0.5 0.375,-0.875 12.375,-0.375 14.375,-0.25 2,0.125 10,0.375 10,0.375 0,0 0.375,2.25 0.75,2.5 0.375,0.25 0.875,0.375 1.125,1.125 0.25,0.75 1.875,1.5 1.688,0.625 -0.188,-0.875 -0.313,-4.375 0.937,-3.625 1.25,0.75 0.817,3.125 1.159,3.375 0.341,0.25 1.466,-0.75 2.466,-0.125 1,0.625 1.75,2.625 1.875,3.375 0.125,0.75 0.5,4.037 1,4.269 0.5,0.231 1.125,-2.218 1.25,-3.494 0.125,-1.275 1.5,-1.4 1.5,-2.775 0,-1.375 0.375,-3.125 1.25,-2.625 0.875,0.5 1.375,8.625 1.75,10.125 0.375,1.5 1.625,3.125 1.75,2 0.125,-1.125 0.75,-4.574 0.75,-6.725 0,-2.15 -1.125,-4.525 0,-4.65 1.125,-0.125 2.125,-1.125 2.125,0.75 v 9.75 l 1,1.375 c 0,0 1.299,-5.625 1.15,-6.625 -0.15,-1 -0.952,-2.875 0.012,-3.75 0.963,-0.875 2.213,-0.75 2.338,-1.875 0.125,-1.125 0,-3.125 1.125,-2.75 1.125,0.375 1,2.375 1.25,2.875 0.25,0.5 1.75,1 1.75,1 0,0 0.5,-0.5 1,-1.75 0.5,-1.25 1.25,-2.375 1.875,-2 0.625,0.375 0.625,0.875 1.5,1.5 0.875,0.625 1.625,0.375 2.125,-0.125 0.5,-0.5 -1.375,-1.625 1.25,-1.625 2.625,0 2.744,0.5 3.497,0.125 0.753,-0.375 2.128,-1.75 4.003,-1.875 C 335.25,12.625 374.25,7.5 377,4.5 c 0,0 3,-1.75 -5.5,0 -8.5,1.75 -37.75,4 -44.75,3.25 -7,-0.75 -3.756,-0.25 2.622,-2 6.378,-1.75 41.878,-9 52.628,-15.5 0,0 -67.25,19 -116,17.5 0,0 12.932,-3 18.216,-3 5.284,0 31.528,-0.5 45.156,-5 0,0 -28.055,2.75 -35.588,1.75 0,0 25.466,-8.5 31.216,-13.5 0,0 -54.75,18.5 -82.5,20.25 -27.75,1.75 -43.5,-1 -43.5,-1 0,0 15,-2 20,-2 5,0 50.75,2.25 87,-13.75 0,0 -50,14 -74.75,9.5 0,0 41.682,-11 52.966,-17.75 0,0 -54.216,15.5 -64.216,18.25 C 210,4.25 131.5,11.381 96.75,11.44 62,11.5 2.25,1.25 0,0" /></g><g
           transform="translate(161.5415,410.9562)"
           id="g52"><path
             id="path54"
             style="fill:#f3b61b;fill-opacity:1;fill-rule:nonzero;stroke:none"
             d="m 0,0 c 0,0 16,9.25 48.75,11.25 32.75,2 106.25,2.5 141,-11.25 0,0 -31,15.75 -86.25,16 C 48.25,16.25 5,11.5 5,11.5 5,11.5 13.5,10.01 9.75,8.005 6,6 0,0 0,0" /></g><g
           transform="translate(118.5415,413.2062)"
           id="g56"><path
             id="path58"
             style="fill:#f3b61b;fill-opacity:1;fill-rule:nonzero;stroke:none"
             d="m 0,0 c 0,0 57.047,15.752 88.75,17.5 31.75,1.75 88,1.25 125.25,-8.75 0,0 -43.805,17.462 -109.5,14.75 C 51.271,21.302 31,17.25 31,17.25 31,17.25 51.5,17.75 48,16 44.5,14.25 -0.5,2.5 -1.25,0" /></g><g
           transform="translate(441.125,306.4562)"
           id="g60"><path
             id="path62"
             style="fill:#f3b61b;fill-opacity:1;fill-rule:nonzero;stroke:none"
             d="M 0,0 94.667,-4.667 0,-8.667 Z" /></g><g
           transform="translate(145.875,306.4562)"
           id="g64"><path
             id="path66"
             style="fill:#f3b61b;fill-opacity:1;fill-rule:nonzero;stroke:none"
             d="M 0,0 -94.667,-4.667 0,-8.667 Z" /></g><g
           transform="translate(76.7212,347.9523)"
           id="g68"><path
             id="path70"
             style="fill:#f3b61b;fill-opacity:1;fill-rule:nonzero;stroke:none"
             d="m 0,0 h 13.439 c 1.512,0 2.708,0.272 3.586,0.816 0.877,0.546 1.512,1.241 1.907,2.089 0.393,0.847 0.59,1.726 0.59,2.633 0,0.908 -0.168,1.771 -0.499,2.587 -0.334,0.817 -0.954,1.468 -1.862,1.953 -0.908,0.484 -2.179,0.727 -3.813,0.727 H 0 Z m -20.704,-15.163 v 64.464 h 52.3 V 34.138 H 0 v -9.806 h 15.164 c 7.384,0 12.983,-1.725 16.797,-5.175 3.813,-3.45 5.72,-8.172 5.72,-14.163 0,-4.178 -0.817,-7.764 -2.452,-10.76 -1.634,-2.996 -4.04,-5.311 -7.218,-6.945 -3.178,-1.635 -7.158,-2.452 -11.939,-2.452 z" /></g><g
           transform="translate(193.2803,348.2247)"
           id="g72"><path
             id="path74"
             style="fill:#f3b61b;fill-opacity:1;fill-rule:nonzero;stroke:none"
             d="M 0,0 V -15.436 H -52.941 V 49.028 H -0.817 V 33.593 h -31.42 V 24.514 H -6.812 V 10.169 H -32.237 V 0 Z" /></g><g
           transform="translate(218.5308,332.7892)"
           id="g76"><path
             id="path78"
             style="fill:#f3b61b;fill-opacity:1;fill-rule:nonzero;stroke:none"
             d="M 0,0 V 64.464 H 20.705 V 15.436 H 35.141 V 64.464 H 56.845 V 15.436 H 71.281 V 64.464 H 93.986 V 0 Z" /></g><g
           transform="translate(386.125,381.8175)"
           id="g80"><path
             id="path82"
             style="fill:#f3b61b;fill-opacity:1;fill-rule:nonzero;stroke:none"
             d="M 0,0 H -17.522 V -49.028 H -37.227 V 0 H -54.839 V 15.436 H 0 Z" /></g><g
           transform="translate(436.6699,359.212)"
           id="g84"><path
             id="path86"
             style="fill:#f3b61b;fill-opacity:1;fill-rule:nonzero;stroke:none"
             d="M 0,0 -5.991,20.699 -11.981,0 Z M -17.887,38.041 H 5.905 l 20.52,-64.464 H 6.448 l -3.333,12.621 h -18.212 l -3.333,-12.621 h -20.067 z" /></g><g
           transform="translate(486.792,332.7892)"
           id="g88"><path
             id="path90"
             style="fill:#f3b61b;fill-opacity:1;fill-rule:nonzero;stroke:none"
             d="m 0,0 v 14.527 h 11.576 c 1.573,0 2.799,0.276 3.677,0.827 0.877,0.552 1.468,1.467 1.77,2.746 L 17.205,18.971 -8,64.464 H 15 L 26.846,40.979 36.362,64.464 H 58 L 32.5,10.917 C 30.623,7.142 26.253,3.521 23.651,2.112 21.049,0.704 17.628,0 13.392,0 Z" /></g><g
           transform="translate(178.6958,299.7169)"
           id="g92"><path
             id="path94"
             style="fill:#f3b61b;fill-opacity:1;fill-rule:nonzero;stroke:none"
             d="m 0,0 c 0,2.424 -0.478,4.417 -1.433,5.978 -0.955,1.561 -2.361,2.341 -4.219,2.341 -1.12,0 -2.076,-0.254 -2.866,-0.76 -0.791,-0.507 -1.43,-1.203 -1.917,-2.085 V -4.862 c 0.487,-0.883 1.126,-1.572 1.917,-2.066 0.79,-0.494 1.759,-0.74 2.905,-0.74 1.844,0 3.241,0.675 4.19,2.025 C -0.475,-4.292 0,-2.55 0,-0.415 Z m 3.893,-0.415 c 0,-3.083 -0.738,-5.57 -2.213,-7.461 -1.476,-1.891 -3.512,-2.836 -6.107,-2.836 -1.318,0 -2.474,0.221 -3.469,0.662 -0.994,0.442 -1.841,1.104 -2.539,1.987 v -10.456 h -3.893 v 29.606 h 2.984 l 0.613,-2.768 c 0.698,1.029 1.567,1.812 2.608,2.353 1.041,0.54 2.253,0.809 3.637,0.809 2.648,0 4.706,-1.05 6.175,-3.152 C 3.159,6.228 3.893,3.451 3.893,0 Z" /></g><g
           transform="translate(208.5645,308.1359)"
           id="g96"><path
             id="path98"
             style="fill:#f3b61b;fill-opacity:1;fill-rule:nonzero;stroke:none"
             d="M 0,0 C -1.357,0 -2.48,-0.524 -3.37,-1.571 -4.259,-2.619 -4.803,-3.96 -5,-5.594 l 0.04,-0.098 h 9.644 v 0.316 c 0,1.555 -0.383,2.839 -1.147,3.854 C 2.773,-0.508 1.594,0 0,0 m 0.612,-19.131 c -3.07,0 -5.464,0.982 -7.183,2.944 -1.72,1.963 -2.579,4.546 -2.579,7.748 v 0.87 c 0,3.069 0.885,5.609 2.658,7.618 C -4.72,2.058 -2.557,3.063 0,3.063 2.858,3.063 5.003,2.174 6.433,0.395 7.862,-1.384 8.577,-3.749 8.577,-6.7 V -8.755 H -5.099 l -0.059,-0.099 c 0,-2.148 0.474,-3.89 1.423,-5.227 0.948,-1.338 2.398,-2.006 4.347,-2.006 1.318,0 2.474,0.188 3.469,0.563 0.994,0.376 1.848,0.892 2.559,1.551 l 1.522,-2.529 C 7.397,-17.24 6.39,-17.863 5.138,-18.37 3.886,-18.877 2.378,-19.131 0.612,-19.131" /></g><g
           transform="translate(242.959,292.049)"
           id="g100"><path
             id="path102"
             style="fill:#f3b61b;fill-opacity:1;fill-rule:nonzero;stroke:none"
             d="M 0,0 C 1.199,0 2.246,0.397 3.142,1.195 4.038,1.992 4.486,2.971 4.486,4.13 H 8.004 L 8.063,4.012 C 8.116,2.167 7.325,0.529 5.691,-0.899 4.058,-2.329 2.161,-3.044 0,-3.044 c -3.004,0 -5.323,1.021 -6.957,3.064 -1.633,2.042 -2.45,4.584 -2.45,7.627 v 0.831 c 0,3.017 0.82,5.549 2.46,7.598 1.64,2.049 3.956,3.073 6.947,3.073 2.384,0 4.338,-0.737 5.859,-2.212 1.522,-1.476 2.257,-3.289 2.204,-5.435 L 8.023,11.383 H 4.486 c 0,1.305 -0.425,2.414 -1.275,3.33 -0.85,0.916 -1.92,1.374 -3.211,1.374 -1.911,0 -3.304,-0.741 -4.18,-2.224 -0.876,-1.482 -1.314,-3.277 -1.314,-5.385 V 7.647 C -5.494,5.5 -5.063,3.688 -4.2,2.213 -3.337,0.737 -1.937,0 0,0" /></g><g
           transform="translate(285.0801,307.7794)"
           id="g104"><path
             id="path106"
             style="fill:#f3b61b;fill-opacity:1;fill-rule:nonzero;stroke:none"
             d="m 0,0 h -7.055 v -18.359 h -3.893 V 0 h -6.957 V 3.024 H 0 Z" /></g><g
           transform="translate(304.8105,299.8741)"
           id="g108"><path
             id="path110"
             style="fill:#f3b61b;fill-opacity:1;fill-rule:nonzero;stroke:none"
             d="m 0,0 c 0,-2.266 0.478,-4.137 1.434,-5.612 0.955,-1.476 2.374,-2.213 4.257,-2.213 1.859,0 3.268,0.737 4.23,2.213 0.962,1.475 1.442,3.346 1.442,5.612 v 0.436 c 0,2.239 -0.484,4.103 -1.452,5.592 C 8.943,7.517 7.523,8.262 5.652,8.262 3.795,8.262 2.389,7.517 1.434,6.028 0.478,4.539 0,2.675 0,0.436 Z m -3.893,0.436 c 0,3.162 0.856,5.766 2.569,7.815 1.713,2.049 4.039,3.073 6.976,3.073 2.965,0 5.307,-1.02 7.026,-3.062 1.719,-2.043 2.58,-4.652 2.58,-7.826 V 0 c 0,-3.188 -0.858,-5.797 -2.57,-7.825 -1.713,-2.029 -4.045,-3.044 -6.997,-3.044 -2.951,0 -5.286,1.017 -7.005,3.054 -1.719,2.035 -2.579,4.64 -2.579,7.815 z" /></g><g
           transform="translate(352.1104,299.7169)"
           id="g112"><path
             id="path114"
             style="fill:#f3b61b;fill-opacity:1;fill-rule:nonzero;stroke:none"
             d="m 0,0 c 0,2.424 -0.478,4.417 -1.433,5.978 -0.955,1.561 -2.361,2.341 -4.219,2.341 -1.12,0 -2.076,-0.254 -2.867,-0.76 -0.79,-0.507 -1.429,-1.203 -1.916,-2.085 V -4.862 c 0.487,-0.883 1.126,-1.572 1.916,-2.066 0.791,-0.494 1.76,-0.74 2.907,-0.74 1.843,0 3.24,0.675 4.189,2.025 C -0.475,-4.292 0,-2.55 0,-0.415 Z m 3.894,-0.415 c 0,-3.083 -0.739,-5.57 -2.214,-7.461 -1.476,-1.891 -3.511,-2.836 -6.107,-2.836 -1.318,0 -2.474,0.221 -3.469,0.662 -0.994,0.442 -1.841,1.104 -2.539,1.987 v -10.456 h -3.893 v 29.606 h 2.983 l 0.614,-2.768 c 0.698,1.029 1.568,1.812 2.609,2.353 1.04,0.54 2.252,0.809 3.636,0.809 2.648,0 4.706,-1.05 6.175,-3.152 C 3.159,6.228 3.894,3.451 3.894,0 Z" /></g><g
           transform="translate(380.418,292.2657)"
           id="g116"><path
             id="path118"
             style="fill:#f3b61b;fill-opacity:1;fill-rule:nonzero;stroke:none"
             d="m 0,0 c 1.409,0 2.681,0.362 3.814,1.087 1.133,0.725 1.871,1.555 2.213,2.49 V 7.056 H 1.66 C 0.092,7.056 -1.164,6.66 -2.105,5.87 -3.047,5.079 -3.518,4.15 -3.518,3.083 -3.518,2.135 -3.222,1.384 -2.629,0.83 -2.036,0.276 -1.16,0 0,0 M 6.462,-2.846 C 6.33,-2.2 6.229,-1.63 6.156,-1.136 6.083,-0.643 6.04,-0.145 6.027,0.355 5.303,-0.672 4.357,-1.531 3.191,-2.224 2.025,-2.915 0.771,-3.261 -0.574,-3.261 c -2.227,0 -3.922,0.57 -5.088,1.71 -1.166,1.139 -1.75,2.71 -1.75,4.713 0,2.042 0.827,3.64 2.48,4.793 1.655,1.152 3.897,1.729 6.73,1.729 h 4.229 v 2.115 c 0,1.251 -0.382,2.243 -1.146,2.973 -0.764,0.732 -1.845,1.098 -3.241,1.098 -1.265,0 -2.286,-0.316 -3.064,-0.949 -0.777,-0.632 -1.166,-1.39 -1.166,-2.273 l -3.695,-0.04 -0.039,0.12 c -0.093,1.554 0.635,2.977 2.183,4.268 1.548,1.291 3.547,1.937 5.998,1.937 2.424,0 4.374,-0.617 5.85,-1.848 C 9.183,15.853 9.92,14.078 9.92,11.759 V 1.463 c 0,-0.765 0.04,-1.502 0.119,-2.214 0.079,-0.711 0.224,-1.41 0.435,-2.095 z" /></g><g
           transform="translate(426.2539,289.42)"
           id="g120"><path
             id="path122"
             style="fill:#f3b61b;fill-opacity:1;fill-rule:nonzero;stroke:none"
             d="m 0,0 h -3.893 v 9.091 h -9.525 V 0 h -3.894 v 21.384 h 3.894 v -9.249 h 9.525 v 9.249 H 0 Z" /></g></g></g></g></svg>