<svg width="91" height="43" viewBox="0 0 91 43" fill="none" xmlns="http://www.w3.org/2000/svg">
<path d="M23.3428 25.1112C24.2167 25.2139 25.067 25.4412 25.8618 25.7846C26.8419 26.2377 27.6919 26.8898 28.345 27.6894C28.9982 28.489 29.4366 29.4144 29.6257 30.3927C29.6924 30.7858 29.7218 31.1834 29.7135 31.581C29.7135 32.0035 29.5964 32.4657 29.5378 32.9014C29.2187 34.7935 28.101 36.5012 26.4183 37.6679C24.6512 38.764 22.6343 39.4894 20.5157 39.791C18.397 40.0926 16.2304 39.9627 14.1747 39.4108C11.9862 38.8618 9.95711 37.8885 8.22932 36.5589C6.50155 35.2293 5.11676 33.5754 4.1718 31.713C2.84926 29.1506 2.18353 26.3527 2.22395 23.5267C2.2803 20.8369 2.88085 18.179 3.99606 15.6837C5.00016 13.3406 6.56539 11.2262 8.58009 9.49113C10.4872 7.87426 12.7536 6.6411 15.2291 5.8733C19.8419 4.5231 24.7942 4.43123 29.4646 5.60923C33.5601 6.56985 37.364 8.34771 40.5951 10.8115C43.3788 13.0115 45.8397 15.5229 47.9179 18.2848C49.9243 20.8199 51.6378 23.2626 53.5125 25.362C55.1725 27.3143 57.1703 29.0129 59.4292 30.3927L61.0549 31.2245C61.5821 31.4754 62.1533 31.6206 62.6805 31.8187C63.6896 32.1657 64.7279 32.4394 65.7854 32.6373C68.9792 33.3526 72.3073 33.4337 75.5393 32.875C77.385 32.5632 79.1458 31.9309 80.7238 31.0132C81.4742 30.5906 82.163 30.0849 82.7742 29.508C82.9195 29.3696 83.0564 29.2241 83.1842 29.0723C83.0371 29.2086 82.8805 29.3365 82.7156 29.4552C82.0735 29.9634 81.3711 30.4062 80.6213 30.7756C79.0089 31.5832 77.2473 32.12 75.4221 32.36C72.2988 32.7665 69.1156 32.5776 66.0783 31.8055C65.0797 31.5851 64.1007 31.2982 63.1492 30.9472C62.6481 30.771 62.1591 30.5682 61.6847 30.3398L60.2201 29.5476C58.0807 28.1789 56.2013 26.5067 54.6548 24.5962C52.8827 22.5232 51.2278 20.0673 49.2653 17.4662C47.1737 14.5517 44.6785 11.8895 41.84 9.54394C38.3784 6.90158 34.2975 5.00103 29.9039 3.98517C24.8694 2.69364 19.5232 2.77635 14.5408 4.22283C3.54205 7.08805 -3.85393 20.7143 2.13608 32.7033C3.24446 34.81 4.79636 36.7024 6.70547 38.2753C8.62225 39.8465 10.8892 41.0304 13.3545 41.7479C15.8232 42.4772 18.4196 42.7905 21.0141 42.6721C23.7093 42.5724 26.3354 41.874 28.6591 40.6388C31.4018 39.1588 33.4254 36.8017 34.3269 34.0369C34.5026 33.3635 34.7077 32.7165 34.8248 32.0431C34.9368 31.3482 34.976 30.6453 34.942 29.9437C34.8552 28.5871 34.4876 27.257 33.8582 26.0222C33.3087 24.9076 32.5673 23.8782 31.6614 22.9722C30.859 22.1832 29.9428 21.4948 28.9373 20.9256C27.4505 20.1019 25.7895 19.5667 24.0604 19.3543C21.2343 19.0648 18.3918 19.7539 16.1079 21.2821C14.3413 22.4272 13.003 24.0298 12.2708 25.877C11.7491 27.0742 11.6369 28.3848 11.9486 29.6401C12.2268 30.5247 12.6808 30.9604 13.1056 30.9604C14.0429 30.9604 14.6726 29.3892 16.269 27.8972C17.1278 26.9702 18.2139 26.2359 19.4416 25.7524C20.6693 25.2689 22.0048 25.0494 23.3428 25.1112Z" fill="white"/>
<path d="M20.1647 14.931C22.3248 14.3165 24.5779 14.0091 26.843 14.02C28.5335 14.0312 30.2142 14.2534 31.8371 14.6802C33.6618 15.1705 35.3947 15.9049 36.9777 16.8588C39.917 18.9363 42.5068 21.3869 44.6666 24.134C47.1247 27.0129 49.8914 29.6665 52.9266 32.0563C55.0219 33.6895 57.3165 35.1026 59.7661 36.2683C62.1137 37.3651 64.632 38.1353 67.2353 38.5525C72.0293 39.404 76.9995 38.8584 81.4268 36.9945C83.4175 36.0928 85.2092 34.8712 86.7138 33.3899C88.0809 31.9779 89.1795 30.3718 89.9651 28.6365C91.345 25.4346 91.345 21.8828 89.9651 18.6809C88.7573 15.8941 86.3784 13.6498 83.3453 12.4355C82.6634 12.1657 81.9515 11.9621 81.2217 11.8281L80.1819 11.6433L79.1274 11.5773C77.7585 11.4811 76.3864 11.7231 75.1585 12.2771C73.0508 13.2133 71.3872 14.8021 70.4719 16.7531C69.721 18.3729 69.6023 20.1745 70.1351 21.863C70.4538 23.0707 71.1034 24.187 72.0245 25.1097C72.9456 26.0324 74.1088 26.732 75.4075 27.1445C76.1682 27.3562 76.9708 27.4162 77.7598 27.3204C78.5488 27.2247 79.3053 26.9754 79.9769 26.5899C80.5384 26.2159 80.966 25.7018 81.2071 25.1111L81.3535 24.6622L81.1339 25.0847C80.7961 25.6423 80.2878 26.1006 79.6693 26.4051C79.0281 26.7121 78.322 26.8933 77.5975 26.9365C76.873 26.9797 76.1466 26.8841 75.4661 26.656C74.3198 26.219 73.3109 25.5336 72.5291 24.6606C71.7473 23.7876 71.2167 22.7541 70.9845 21.6517C70.6053 20.1514 70.7962 18.5797 71.5264 17.1889C72.3838 15.5175 73.8815 14.1812 75.7443 13.4258C76.7726 12.9947 77.9123 12.8258 79.0396 12.9373L79.9622 13.0033C80.2698 13.0033 80.5627 13.1353 80.8702 13.2013C81.4955 13.3284 82.1041 13.5142 82.6863 13.7559C85.275 14.8633 87.2748 16.8465 88.2516 19.2751C89.4179 22.0953 89.3814 25.2054 88.1491 28.0027C87.8023 28.7572 87.3807 29.4819 86.8895 30.1681C86.399 30.8839 85.8403 31.5598 85.22 32.1883C83.8734 33.486 82.2752 34.551 80.5041 35.3308C76.4699 36.9554 71.9696 37.3898 67.6454 36.572C65.266 36.1726 62.9659 35.4562 60.8206 34.4462C58.5334 33.3469 56.3913 32.0181 54.4351 30.485C51.5406 28.205 48.9989 25.5849 46.8781 22.6948C44.7909 19.5819 42.3357 16.6822 39.5553 14.0464C36.1539 11.2382 31.8918 9.42052 27.3263 8.83089C24.3323 8.42001 21.2765 8.56832 18.3486 9.26662C16.469 9.75038 14.692 10.5135 13.0909 11.5245C12.4091 11.9768 11.7586 12.4662 11.1431 12.9901C10.6012 13.5314 10.1032 14.02 9.6785 14.5085C9.33913 14.9619 9.031 15.4338 8.75584 15.9213C8.55845 16.3098 8.41103 16.7173 8.31647 17.1361C8.17002 17.8491 8.31647 18.3376 8.63867 18.5885C8.89197 18.6994 9.16989 18.7571 9.4515 18.7571C9.7331 18.7571 10.011 18.6994 10.2643 18.5885C10.6158 18.496 10.9673 18.3244 11.4067 18.1659C11.846 18.0075 12.2854 17.8094 12.7541 17.585C13.2227 17.3605 13.7939 17.1625 14.3211 16.8984L16.0786 16.1854C17.4143 15.7005 18.7783 15.2818 20.1647 14.931Z" fill="white"/>
<path d="M67.7039 28.6364L67.0595 27.8442C66.6202 27.3293 66.0929 26.5238 65.4339 25.6392C63.861 23.2435 62.6401 20.6736 61.8018 17.9942C60.8934 15.1145 60.4012 12.1411 60.3372 9.14771C60.3195 7.42016 60.4517 5.694 60.7327 3.98505C60.8356 3.20714 61.1147 2.45661 61.5528 1.78002C61.8708 1.24421 62.3344 0.789914 62.9002 0.459646C63.3473 0.194862 63.8627 0.0387068 64.3964 0.00631988C64.9301 -0.026067 65.4641 0.0664128 65.9465 0.274794C66.4145 0.467944 66.8324 0.747575 67.173 1.09558C67.5136 1.44358 67.7693 1.8522 67.9236 2.29497C68.0924 2.78139 68.1619 3.2914 68.1286 3.80019C68.1101 4.09074 68.056 4.37856 67.9675 4.65844C67.9019 4.9841 67.7988 5.30271 67.66 5.60911C67.0649 6.92247 66.5755 8.27274 66.1954 9.64946C65.4809 12.2396 65.1461 14.9031 65.1995 17.5717C65.2359 20.188 65.6494 22.7889 66.4298 25.3091C66.7813 26.339 67.0888 27.1972 67.3524 27.7782L67.7039 28.6364Z" fill="white"/>
<path d="M63.5593 26.9596L62.8416 26.4975C62.373 26.207 61.7432 25.7449 60.967 25.1771C59.0548 23.7186 57.3305 22.071 55.8264 20.2653C54.2048 18.3261 52.8339 16.2263 51.7404 14.0068C51.1225 12.7383 50.5894 11.4376 50.144 10.1117C49.9231 9.50776 49.8629 8.86548 49.9682 8.23673C50.0537 7.75156 50.2812 7.29575 50.6273 6.91635C50.957 6.56712 51.3682 6.28782 51.8315 6.09838C52.2948 5.90894 52.7988 5.81404 53.3074 5.82044C54.3173 5.77459 55.3113 6.06079 56.1047 6.62587C56.4614 6.91665 56.7459 7.27212 56.9395 7.66897C57.1649 8.13119 57.2845 8.62969 57.291 9.13458C57.2598 10.2802 57.3038 11.4266 57.4228 12.5676C57.6523 14.6919 58.1435 16.7866 58.8874 18.8129C59.6308 20.8172 60.6129 22.743 61.8165 24.5566C62.329 25.296 62.7684 25.8769 63.1053 26.3127L63.5593 26.9596Z" fill="white"/>
</svg>
