<svg width="38" height="38" viewBox="0 0 38 38" fill="none" xmlns="http://www.w3.org/2000/svg">
<path d="M0.0156045 19.0275C-0.423426 8.90006 8.56013 -0.119176 18.927 0.00119122C29.501 0.125709 37.9793 8.52235 38 19.123C38 29.3293 29.3022 38.0414 19.014 37.9999C7.47083 37.95 -0.398575 28.2916 0.0156045 19.0275ZM22.3357 15.4746L22.7085 15.8897C22.4059 16.3373 22.0724 16.7631 21.7103 17.1639C19.9708 18.8532 18.2105 20.5134 16.4502 22.1736C15.8455 22.7423 15.5763 23.4188 16.3218 23.9418C18.633 25.5605 20.9524 27.1917 23.3877 28.6112C24.5847 29.3085 25.4172 28.7274 25.6616 27.3287C26.1048 24.8383 26.49 22.3106 26.9041 19.7995C27.2769 17.4503 27.6455 15.0969 27.9769 12.7435C28.1674 11.3531 27.4633 10.801 26.1586 11.2493C25.8107 11.3697 25.4752 11.5315 25.1356 11.6644L12.5031 16.8692C10.7967 17.5748 9.08614 18.2679 7.40871 19.0317C7.04085 19.232 6.76583 19.5687 6.64248 19.9697C6.59692 20.144 7.12292 20.5798 7.47083 20.7043C8.50518 21.1024 9.56341 21.4351 10.6393 21.7005C11.1943 21.8519 11.7763 21.8752 12.3415 21.7688C12.9068 21.6624 13.4407 21.429 13.903 21.0862C15.4935 19.924 17.1502 18.8573 18.7945 17.7657C19.9501 16.9813 21.1388 16.2383 22.3482 15.4746H22.3357Z" fill="white"/>
</svg>
