<svg width="38" height="38" viewBox="0 0 38 38" fill="none" xmlns="http://www.w3.org/2000/svg">
<path d="M19.0366 0.0151855C27.9702 -0.378502 37.8455 7.06013 37.9983 18.85C38.1387 29.289 29.4777 37.9709 19.1192 37.9999C14.0956 38.0188 9.26794 36.0459 5.6872 32.5105C2.10646 28.9752 0.0625788 24.1637 0.000527123 19.1236C-0.0820768 7.71075 9.5578 -0.399223 19.0366 0.0151855ZM13.9978 12.493C14.5306 13.2265 15.2368 13.7362 15.2988 14.3703C15.464 15.7467 15.464 17.138 15.2988 18.5144C15.1749 19.6416 14.4727 19.8405 13.7417 18.9661C12.9156 17.9632 11.9616 16.894 11.6022 15.7088C10.7225 12.808 8.86392 12.033 6.12974 12.5966C6.00743 12.607 5.88446 12.607 5.76215 12.5966C4.83698 12.6256 4.43223 13.011 4.93611 13.9144C6.50558 16.7366 7.95528 19.6416 9.71474 22.3394C11.7344 25.4309 14.5595 27.4117 18.4584 27.3869C20.3665 27.3869 20.3211 27.3869 20.7465 25.5096C20.8787 24.9211 21.2256 24.0923 21.6551 23.9514C22.0847 23.8105 22.7166 24.4653 23.2742 24.7678C23.3738 24.8389 23.457 24.9308 23.5179 25.0372C24.8643 26.9517 26.6857 27.7806 29.0275 27.4242C29.4406 27.362 29.8536 27.4739 30.2666 27.3827C30.8324 27.2501 31.6461 27.1548 31.8443 26.7735C32.0426 26.3923 31.7163 25.5925 31.3735 25.1781C30.4979 24.1047 29.4942 23.1309 28.5195 22.1446C27.3548 20.9635 27.3135 20.5657 28.3089 19.2023C28.5773 18.8418 28.883 18.5061 29.1349 18.1331C30.0394 16.7739 31.0059 15.4436 31.7989 14.018C32.3317 13.0649 32.0261 12.6505 30.9316 12.6173C29.6925 12.58 28.4534 12.6671 27.2516 12.6173C26.2603 12.5718 25.7316 12.9323 25.2938 13.8606C24.5282 15.4371 23.6575 16.96 22.6877 18.4191C22.4027 18.8625 21.7501 19.0697 21.2628 19.3846C21.0521 18.8376 20.6887 18.2989 20.6598 17.727C20.5854 16.3387 20.6598 14.9422 20.6598 13.5498C20.6598 12.4972 20.1311 11.9419 19.0944 11.9211C17.8554 11.8963 16.6163 11.8714 15.4185 11.9584C14.9207 12.0634 14.4416 12.2437 13.9978 12.493Z" fill="white"/>
</svg>
